<svg id="visual" viewBox="0 0 900 600" width="900" height="600" xmlns="http://www.w3.org/2000/svg" xmlns:xlink="http://www.w3.org/1999/xlink" version="1.1"><path d="M0 31L82 49L164 61L245 49L327 73L409 49L491 55L573 49L655 31L736 79L818 91L900 31L900 0L818 0L736 0L655 0L573 0L491 0L409 0L327 0L245 0L164 0L82 0L0 0Z" fill="#12122a"></path><path d="M0 145L82 229L164 175L245 139L327 199L409 223L491 247L573 199L655 121L736 181L818 187L900 121L900 29L818 89L736 77L655 29L573 47L491 53L409 47L327 71L245 47L164 59L82 47L0 29Z" fill="#111029"></path><path d="M0 385L82 385L164 343L245 289L327 349L409 307L491 355L573 385L655 343L736 409L818 343L900 355L900 119L818 185L736 179L655 119L573 197L491 245L409 221L327 197L245 137L164 173L82 227L0 143Z" fill="#100e28"></path><path d="M0 481L82 505L164 427L245 403L327 421L409 385L491 475L573 469L655 445L736 463L818 397L900 451L900 353L818 341L736 407L655 341L573 383L491 353L409 305L327 347L245 287L164 341L82 383L0 383Z" fill="#0e0c26"></path><path d="M0 559L82 571L164 553L245 529L327 565L409 523L491 565L573 523L655 553L736 535L818 517L900 547L900 449L818 395L736 461L655 443L573 467L491 473L409 383L327 419L245 401L164 425L82 503L0 479Z" fill="#0c0925"></path><path d="M0 601L82 601L164 601L245 601L327 601L409 601L491 601L573 601L655 601L736 601L818 601L900 601L900 545L818 515L736 533L655 551L573 521L491 563L409 521L327 563L245 527L164 551L82 569L0 557Z" fill="#0a0724"></path></svg>